<?xml version="1.0" encoding="utf-8"?>
<!-- Generator: Adobe Illustrator 17.0.0, SVG Export Plug-In . SVG Version: 6.00 Build 0)  -->
<!DOCTYPE svg PUBLIC "-//W3C//DTD SVG 1.1//EN" "http://www.w3.org/Graphics/SVG/1.1/DTD/svg11.dtd">
<svg version="1.1" id="Layer_1" xmlns="http://www.w3.org/2000/svg" xmlns:xlink="http://www.w3.org/1999/xlink" x="0px" y="0px"
	 width="210.387px" height="45.017px" viewBox="2.897 0 210.387 45.017" enable-background="new 2.897 0 210.387 45.017"
	 xml:space="preserve">
<g id="Black">
</g>
<text transform="matrix(1 0 0 1 51.1631 27.9402)" font-family="'Helvetica'" font-size="13">macro</text>
<text transform="matrix(1 0 0 1 51.1631 43.8865)" font-family="'Helvetica'" font-size="13">connections</text>
<g>
	<text transform="matrix(1 0 0 1 177.568 14.0779)" font-family="'Helvetica'" font-size="13">mit</text>
	<text transform="matrix(1 0 0 1 177.568 29.0242)" font-family="'Helvetica'" font-size="13">media</text>
	<text transform="matrix(1 0 0 1 177.568 44.9695)" font-family="'Helvetica'" font-size="13">lab</text>
</g>
<g>
	<rect x="15.683" y="0" width="32.23" height="6.431"/>
	<rect x="15.683" y="0.671" width="6.507" height="18.623"/>
	<rect x="2.897" y="12.862" width="6.431" height="32.154"/>
	<rect x="2.897" y="12.862" width="19.292" height="6.431"/>
	<rect x="22.189" y="19.293" width="6.431" height="25.723"/>
	<rect x="22.19" y="19.293" width="25.723" height="6.431"/>
	<rect x="22.19" y="38.585" width="25.723" height="6.431"/>
</g>
<g>
	<rect x="129.246" y="0.016" width="32.143" height="6.429"/>
	<rect x="154.96" y="0" width="6.429" height="19.302"/>
	<rect x="154.961" y="12.873" width="19.285" height="6.429"/>
	<rect x="167.817" y="12.874" width="6.429" height="32.143"/>
	<rect x="129.246" y="19.303" width="6.429" height="25.714"/>
	<rect x="129.246" y="38.588" width="25.715" height="6.429"/>
</g>
</svg>
